<svg id="ef3tvKZ1adg1" xmlns="http://www.w3.org/2000/svg" xmlns:xlink="http://www.w3.org/1999/xlink" viewBox="0 0 100 100" shape-rendering="geometricPrecision" text-rendering="geometricPrecision"><g transform="matrix(-1.231396 0 0 1.231396 65.367716-10.367891)"><path d="M7.273206,50q74.925425,0,74.925425,0" transform="matrix(.297266 0.272718-.676027 0.736877 50.366364-8.796938)" fill="none" fill-rule="evenodd" stroke="#fff" stroke-width="15" stroke-linecap="square"/><path d="M7.273206,50q74.925425,0,74.925425,0" transform="matrix(.22887-.254011 0.742915 0.669386-20.434798 37.059089)" fill="none" fill-rule="evenodd" stroke="#fff" stroke-width="15" stroke-linecap="square"/></g><g transform="matrix(-1.159689 0 0 1.159689 105.527024-4.898577)"><path d="M7.273206,50q74.925425,0,74.925425,0" transform="matrix(.297266 0.272718-.676027 0.736877 50.366364-8.796938)" fill="none" fill-rule="evenodd" stroke="#fff" stroke-width="15" stroke-linecap="square"/><path d="M7.273206,50q74.925425,0,74.925425,0" transform="matrix(.22887-.254011 0.742915 0.669386-20.434798 37.059089)" fill="none" fill-rule="evenodd" stroke="#fff" stroke-width="15" stroke-linecap="square"/></g></svg>
